<svg width="15" height="15" viewBox="0 0 15 15" fill="none" xmlns="http://www.w3.org/2000/svg">
<rect width="15" height="15" rx="4" fill="#FF7575"/>
<path d="M4.2001 3.6C4.04097 3.6 3.88836 3.66321 3.77583 3.77574C3.66331 3.88826 3.6001 4.04087 3.6001 4.2V4.8C3.6001 4.95913 3.66331 5.11174 3.77583 5.22426C3.88836 5.33679 4.04097 5.4 4.2001 5.4H4.5001V10.8C4.5001 11.1183 4.62653 11.4235 4.85157 11.6485C5.07661 11.8736 5.38184 12 5.7001 12H9.3001C9.61836 12 9.92358 11.8736 10.1486 11.6485C10.3737 11.4235 10.5001 11.1183 10.5001 10.8V5.4H10.8001C10.9592 5.4 11.1118 5.33679 11.2244 5.22426C11.3369 5.11174 11.4001 4.95913 11.4001 4.8V4.2C11.4001 4.04087 11.3369 3.88826 11.2244 3.77574C11.1118 3.66321 10.9592 3.6 10.8001 3.6H8.7001C8.7001 3.44087 8.63688 3.28826 8.52436 3.17574C8.41184 3.06321 8.25923 3 8.1001 3H6.9001C6.74097 3 6.58836 3.06321 6.47583 3.17574C6.36331 3.28826 6.3001 3.44087 6.3001 3.6H4.2001ZM6.0001 6C6.07966 6 6.15597 6.03161 6.21223 6.08787C6.26849 6.14413 6.3001 6.22044 6.3001 6.3V10.5C6.3001 10.5796 6.26849 10.6559 6.21223 10.7121C6.15597 10.7684 6.07966 10.8 6.0001 10.8C5.92053 10.8 5.84423 10.7684 5.78797 10.7121C5.7317 10.6559 5.7001 10.5796 5.7001 10.5V6.3C5.7001 6.22044 5.7317 6.14413 5.78797 6.08787C5.84423 6.03161 5.92053 6 6.0001 6ZM7.5001 6C7.57966 6 7.65597 6.03161 7.71223 6.08787C7.76849 6.14413 7.8001 6.22044 7.8001 6.3V10.5C7.8001 10.5796 7.76849 10.6559 7.71223 10.7121C7.65597 10.7684 7.57966 10.8 7.5001 10.8C7.42053 10.8 7.34423 10.7684 7.28797 10.7121C7.2317 10.6559 7.2001 10.5796 7.2001 10.5V6.3C7.2001 6.22044 7.2317 6.14413 7.28797 6.08787C7.34423 6.03161 7.42053 6 7.5001 6ZM9.3001 6.3V10.5C9.3001 10.5796 9.26849 10.6559 9.21223 10.7121C9.15597 10.7684 9.07966 10.8 9.0001 10.8C8.92053 10.8 8.84423 10.7684 8.78797 10.7121C8.7317 10.6559 8.7001 10.5796 8.7001 10.5V6.3C8.7001 6.22044 8.7317 6.14413 8.78797 6.08787C8.84423 6.03161 8.92053 6 9.0001 6C9.07966 6 9.15597 6.03161 9.21223 6.08787C9.26849 6.14413 9.3001 6.22044 9.3001 6.3Z" fill="white"/>
</svg>
