<svg width="15" height="15" viewBox="0 0 15 15" fill="none" xmlns="http://www.w3.org/2000/svg">
<rect width="15" height="15" rx="4" fill="#F9D48C"/>
<path fill-rule="evenodd" clip-rule="evenodd" d="M11.2283 3.42741C10.9546 3.15374 10.5833 3 10.1962 3C9.80916 3 9.43792 3.15374 9.16417 3.42741L8.82014 3.77192L11.2288 6.18059L11.5723 5.83657C11.7079 5.70101 11.8155 5.54007 11.8889 5.36294C11.9622 5.18581 12 4.99597 12 4.80424C12 4.61252 11.9622 4.42267 11.8889 4.24555C11.8155 4.06842 11.7079 3.90748 11.5723 3.77192L11.2283 3.42741ZM10.5403 6.86864L8.1316 4.45997L3.70841 8.88365C3.61162 8.98046 3.544 9.10254 3.51328 9.23595L3.01257 11.4038C2.99391 11.4842 2.99605 11.5681 3.01879 11.6476C3.04152 11.727 3.08411 11.7993 3.14252 11.8577C3.20094 11.9161 3.27326 11.9587 3.35269 11.9815C3.43211 12.0042 3.51601 12.0063 3.59649 11.9877L5.76478 11.4874C5.89801 11.4566 6.01991 11.389 6.11659 11.2923L10.5403 6.86864Z" fill="white"/>
</svg>
