<svg width="15" height="12" viewBox="0 0 15 12" fill="none" xmlns="http://www.w3.org/2000/svg">
<path d="M6.88244 10.9276C6.95125 11.0275 7.04332 11.1093 7.15072 11.1657C7.25813 11.2222 7.37765 11.2517 7.49898 11.2517C7.62032 11.2517 7.73984 11.2222 7.84724 11.1657C7.95465 11.1093 8.04672 11.0275 8.11553 10.9276L14.8661 1.17684C14.9442 1.06438 14.99 0.932647 14.9985 0.795967C15.0071 0.659287 14.978 0.522883 14.9144 0.401577C14.8509 0.28027 14.7553 0.1787 14.6381 0.107902C14.5208 0.0371039 14.3865 -0.000214775 14.2495 9.29813e-07H0.748455C0.611827 0.000565281 0.477937 0.0383639 0.361185 0.109332C0.244433 0.180299 0.149235 0.281751 0.0858294 0.402777C0.0224239 0.523803 -0.0067904 0.659824 0.0013282 0.796212C0.0094468 0.932599 0.0545912 1.06419 0.131906 1.17684L6.88244 10.9276Z" fill="#5E5E5E"/>
</svg>
